<svg xmlns="http://www.w3.org/2000/svg" xmlns:xlink="http://www.w3.org/1999/xlink" xmlns:lucid="lucid" width="1422.78" height="265"><g transform="translate(620.5 -159.5)" lucid:page-tab-id="0_0"><path d="M446.45 168a8 8 0 0 1 8-8H793.8a8 8 0 0 1 8 8v248a8 8 0 0 1-8 8H454.46a8 8 0 0 1-8-8z" fill="#fff"/><path d="M446.45 200v-32a8 8 0 0 1 8-8H793.8a8 8 0 0 1 8 8v32" fill="#54c45e"/><path d="M446.45 168a8 8 0 0 1 8-8H793.8a8 8 0 0 1 8 8v248a8 8 0 0 1-8 8H454.46a8 8 0 0 1-8-8zM446.45 200H801.8M506.45 200v224M656.45 200v224" stroke="#3a414a" fill="none"/><use xlink:href="#a" transform="matrix(1,0,0,1,456.4554806725645,160) translate(140.575 23.6)"/><use xlink:href="#b" transform="matrix(1,0,0,1,451.4554806725645,202.5) translate(12.524999999999999 17.1)"/><use xlink:href="#c" transform="matrix(1,0,0,1,511.4554806725645,202.5) translate(58.525 17.1)"/><use xlink:href="#d" transform="matrix(1,0,0,1,661.4448931736606,202.5) translate(24.074999999999996 17.1)"/><use xlink:href="#e" transform="matrix(1,0,0,1,511.4554806725645,234.5) translate(21.549999999999997 17.1)"/><use xlink:href="#f" transform="matrix(1,0,0,1,661.4448931736606,234.5) translate(24.775 17.1)"/><use xlink:href="#g" transform="matrix(1,0,0,1,511.4554806725645,266.5) translate(26.574999999999996 17.1)"/><use xlink:href="#f" transform="matrix(1,0,0,1,661.4448931736606,266.5) translate(24.775 17.1)"/><use xlink:href="#h" transform="matrix(1,0,0,1,511.4554806725645,298.5) translate(42.05 17.1)"/><use xlink:href="#d" transform="matrix(1,0,0,1,661.4448931736606,298.5) translate(24.074999999999996 17.1)"/><use xlink:href="#i" transform="matrix(1,0,0,1,511.4554806725645,330.5) translate(35.55 17.1)"/><use xlink:href="#f" transform="matrix(1,0,0,1,661.4448931736606,330.5) translate(24.775 17.1)"/><use xlink:href="#j" transform="matrix(1,0,0,1,511.4554806725645,362.5) translate(25.025 17.1)"/><use xlink:href="#f" transform="matrix(1,0,0,1,661.4448931736606,362.5) translate(24.775 17.1)"/><use xlink:href="#k" transform="matrix(1,0,0,1,511.4554806725645,394.5) translate(46.525 17.1)"/><use xlink:href="#l" transform="matrix(1,0,0,1,661.4448931736606,394.5) translate(24.525 17.1)"/><path d="M307.36 312.48h-14.22v-.96h14.22zm93.58-132h-29.08l-1.82.14-1.76.42-1.67.7-1.53.94-1.38 1.17-1.18 1.38-.95 1.54-.7 1.67-.4 1.76-.15 1.82v108l-.16 1.93-.45 1.9-.74 1.8-1.02 1.68-1.28 1.5-1.5 1.26-1.65 1.02-1.8.75-1.9.45-1.94.16H320.3v-.96h27.52l1.82-.14 1.76-.42 1.67-.7 1.55-.94 1.37-1.17 1.16-1.38.95-1.54.7-1.67.42-1.76.15-1.82v-108l.15-1.93.46-1.9.75-1.8 1.02-1.68 1.27-1.5 1.5-1.26 1.66-1.02 1.8-.75 1.9-.45 1.94-.16h29.12zm25 0h-15v-.95h15z" stroke="#3a414a" stroke-width=".05" fill="#3a414a"/><path d="M426.43 179.53h19.52v.94h-19.52V190h-.95v-20h.95zM294.16 311.57l-.2.43.2.43-20 10-.42-.86 18.2-9.1h-18v-.95h18l-18.2-9.1.42-.85z" stroke="#3a414a" stroke-width=".05" fill="#3a414a"/><use xlink:href="#m" transform="matrix(1,0,0,1,400.9399805828865,169.19999999999985) translate(0.004999999999999893 14.4)"/><use xlink:href="#n" transform="matrix(1,0,0,1,307.3573657961323,301.20000000000016) translate(0.004999999999999893 14.4)"/><path d="M-66.77 232a8 8 0 0 1 8-8h324a8 8 0 0 1 8 8v184a8 8 0 0 1-8 8h-324a8 8 0 0 1-8-8z" fill="#fff"/><path d="M-66.77 264v-32a8 8 0 0 1 8-8h324a8 8 0 0 1 8 8v32" fill="#c3f7c8"/><path d="M-66.77 232a8 8 0 0 1 8-8h324a8 8 0 0 1 8 8v184a8 8 0 0 1-8 8h-324a8 8 0 0 1-8-8zM-66.77 264h340M-6.77 264v160M149.23 264v160" stroke="#3a414a" fill="none"/><use xlink:href="#o" transform="matrix(1,0,0,1,-56.772259663717705,224) translate(127.07499999999999 23.6)"/><use xlink:href="#p" transform="matrix(1,0,0,1,-61.772259663717705,266.5) translate(13 17.1)"/><use xlink:href="#q" transform="matrix(1,0,0,1,-1.7722596637177048,266.5) translate(58.55 17.1)"/><use xlink:href="#d" transform="matrix(1,0,0,1,154.2277403362823,266.5) translate(13.074999999999996 17.1)"/><use xlink:href="#r" transform="matrix(1,0,0,1,-61.772259663717705,298.5) translate(13.524999999999999 17.1)"/><use xlink:href="#c" transform="matrix(1,0,0,1,-1.7722596637177048,298.5) translate(61.525 17.1)"/><use xlink:href="#d" transform="matrix(1,0,0,1,154.2277403362823,298.5) translate(13.074999999999996 17.1)"/><use xlink:href="#s" transform="matrix(1,0,0,1,-1.7722596637177048,330.5) translate(50.525 17.1)"/><use xlink:href="#f" transform="matrix(1,0,0,1,154.2277403362823,330.5) translate(13.774999999999999 17.1)"/><use xlink:href="#t" transform="matrix(1,0,0,1,-1.7722596637177048,362.5) translate(58 17.1)"/><use xlink:href="#u" transform="matrix(1,0,0,1,154.2277403362823,362.5) translate(22.099999999999994 17.1)"/><use xlink:href="#v" transform="matrix(1,0,0,1,-1.7722596637177048,394.5) translate(19.549999999999997 17.1)"/><use xlink:href="#f" transform="matrix(1,0,0,1,154.2277403362823,394.5) translate(13.774999999999999 17.1)"/><path d="M-203.74 376.48h-16.35v-.96h16.36zm84.32-132h-21.95l-1.82.14-1.75.42-1.67.7-1.54.94-1.38 1.17-1.17 1.38-.95 1.54-.7 1.67-.42 1.76-.14 1.82v108l-.16 1.93-.46 1.9-.75 1.8-1.02 1.68-1.26 1.5-1.5 1.26-1.66 1.02-1.8.75-1.9.45-1.95.16h-25.42v-.96h25.4l1.82-.14 1.76-.42 1.66-.7 1.55-.94 1.36-1.17 1.18-1.38.94-1.54.7-1.67.42-1.76.14-1.82v-108l.15-1.93.45-1.9.75-1.8 1.02-1.68 1.27-1.5 1.48-1.26 1.67-1.02 1.8-.75 1.9-.45 1.94-.16h21.98zm32.15 0h-22.15v-.95h22.15z" stroke="#3a414a" stroke-width=".05" fill="#3a414a"/><path d="M-86.8 243.53h19.53v.94H-86.8V254h-.95v-20h.95zM-219.06 375.57l-.22.43.22.43-20 10-.43-.86 18.2-9.1h-17.98v-.95h18l-18.2-9.1.42-.85z" stroke="#3a414a" stroke-width=".05" fill="#3a414a"/><use xlink:href="#m" transform="matrix(1,0,0,1,-119.42119246660636,233.2) translate(0.004999999999999893 14.4)"/><use xlink:href="#n" transform="matrix(1,0,0,1,-203.73680267886792,365.2) translate(0.004999999999999893 14.4)"/><path d="M-620 296a8 8 0 0 1 8-8h364a8 8 0 0 1 8 8v120a8 8 0 0 1-8 8h-364a8 8 0 0 1-8-8z" fill="#fff"/><path d="M-620 328v-32a8 8 0 0 1 8-8h364a8 8 0 0 1 8 8v32" fill="#e3fae3"/><path d="M-620 296a8 8 0 0 1 8-8h364a8 8 0 0 1 8 8v120a8 8 0 0 1-8 8h-364a8 8 0 0 1-8-8zM-620 328h380M-560 328v96M-398.7 328v96" stroke="#3a414a" fill="none"/><use xlink:href="#w" transform="matrix(1,0,0,1,-610,288) translate(154.55 23.6)"/><use xlink:href="#p" transform="matrix(1,0,0,1,-615,330.5) translate(13 17.1)"/><use xlink:href="#x" transform="matrix(1,0,0,1,-555,330.5) translate(64.025 17.1)"/><use xlink:href="#d" transform="matrix(1,0,0,1,-393.7147339259031,330.5) translate(30.574999999999996 17.1)"/><use xlink:href="#r" transform="matrix(1,0,0,1,-615,362.5) translate(13.524999999999999 17.1)"/><use xlink:href="#q" transform="matrix(1,0,0,1,-555,362.5) translate(61.55 17.1)"/><use xlink:href="#d" transform="matrix(1,0,0,1,-393.7147339259031,362.5) translate(30.574999999999996 17.1)"/><use xlink:href="#y" transform="matrix(1,0,0,1,-555,394.5) translate(27.599999999999994 17.1)"/><use xlink:href="#f" transform="matrix(1,0,0,1,-393.7147339259031,394.5) translate(31.275 17.1)"/><defs><path fill="#3a414a" d="M169-182c-1-43-94-46-97-3 18 66 151 10 154 114 3 95-165 93-204 36-6-8-10-19-12-30l50-8c3 46 112 56 116 5-17-69-150-10-154-114-4-87 153-88 188-35 5 8 8 18 10 28" id="z"/><path fill="#3a414a" d="M84 4C32 4 15-41 15-95c0-55 18-99 73-99 29 0 47 12 58 34l2-30h48l-1 265h-49V-32C136-9 114 4 84 4zm21-34c32 0 41-29 41-66 0-36-9-64-40-64-33 0-39 30-40 65 0 43 13 65 39 65" id="A"/><path fill="#3a414a" d="M85 4C-2 5 27-109 22-190h50c7 57-23 150 33 157 60-5 35-97 40-157h50l1 190h-47c-2-12 1-28-3-38-12 25-28 42-61 42" id="B"/><path fill="#3a414a" d="M133-34C117-15 103 5 69 4 32 3 11-16 11-54c-1-60 55-63 116-61 1-26-3-47-28-47-18 1-26 9-28 27l-52-2c7-38 36-58 82-57s74 22 75 68l1 82c-1 14 12 18 25 15v27c-30 8-71 5-69-32zm-48 3c29 0 43-24 42-57-32 0-66-3-65 30 0 17 8 27 23 27" id="C"/><path fill="#3a414a" d="M88-194c31-1 46 15 58 34l-1-101h50l1 261h-48c-2-10 0-23-3-31C134-8 116 4 84 4 32 4 16-41 15-95c0-56 19-97 73-99zm17 164c33 0 40-30 41-66 1-37-9-64-41-64s-38 30-39 65c0 43 13 65 39 65" id="D"/><g id="a"><use transform="matrix(0.05,0,0,0.05,0,0)" xlink:href="#z"/><use transform="matrix(0.05,0,0,0.05,12,0)" xlink:href="#A"/><use transform="matrix(0.05,0,0,0.05,22.950000000000003,0)" xlink:href="#B"/><use transform="matrix(0.05,0,0,0.05,33.900000000000006,0)" xlink:href="#C"/><use transform="matrix(0.05,0,0,0.05,43.900000000000006,0)" xlink:href="#D"/></g><path fill="#3a414a" d="M24-248c93 1 206-16 204 79-1 75-69 88-152 82V0H24v-248zm52 121c47 0 100 7 100-41 0-47-54-39-100-39v80" id="E"/><path fill="#3a414a" d="M195 0l-88-114-31 24V0H24v-248h52v113l112-113h60L142-143 257 0h-62" id="F"/><g id="b"><use transform="matrix(0.05,0,0,0.05,0,0)" xlink:href="#E"/><use transform="matrix(0.05,0,0,0.05,12,0)" xlink:href="#F"/></g><path fill="#3a414a" d="M135-143c-3-34-86-38-87 0 15 53 115 12 119 90S17 21 10-45l28-5c4 36 97 45 98 0-10-56-113-15-118-90-4-57 82-63 122-42 12 7 21 19 24 35" id="G"/><path fill="#3a414a" d="M24-231v-30h32v30H24zM24 0v-190h32V0H24" id="H"/><path fill="#3a414a" d="M85-194c31 0 48 13 60 33l-1-100h32l1 261h-30c-2-10 0-23-3-31C134-8 116 4 85 4 32 4 16-35 15-94c0-66 23-100 70-100zm9 24c-40 0-46 34-46 75 0 40 6 74 45 74 42 0 51-32 51-76 0-42-9-74-50-73" id="I"/><g id="c"><use transform="matrix(0.05,0,0,0.05,0,0)" xlink:href="#G"/><use transform="matrix(0.05,0,0,0.05,9,0)" xlink:href="#H"/><use transform="matrix(0.05,0,0,0.05,12.949999999999998,0)" xlink:href="#I"/></g><path fill="#3a414a" d="M185-189c-5-48-123-54-124 2 14 75 158 14 163 119 3 78-121 87-175 55-17-10-28-26-33-46l33-7c5 56 141 63 141-1 0-78-155-14-162-118-5-82 145-84 179-34 5 7 8 16 11 25" id="J"/><path fill="#3a414a" d="M240 0l2-218c-23 76-54 145-80 218h-23L58-218 59 0H30v-248h44l77 211c21-75 51-140 76-211h43V0h-30" id="K"/><path fill="#3a414a" d="M205 0l-28-72H64L36 0H1l101-248h38L239 0h-34zm-38-99l-47-123c-12 45-31 82-46 123h93" id="L"/><path fill="#3a414a" d="M30 0v-248h33v221h125V0H30" id="M"/><path fill="#3a414a" d="M33 0v-248h34V0H33" id="N"/><path fill="#3a414a" d="M190 0L58-211 59 0H30v-248h39L202-35l-2-213h31V0h-41" id="O"/><path fill="#3a414a" d="M127-220V0H93v-220H8v-28h204v28h-85" id="P"/><g id="d"><use transform="matrix(0.05,0,0,0.05,0,0)" xlink:href="#J"/><use transform="matrix(0.05,0,0,0.05,12,0)" xlink:href="#K"/><use transform="matrix(0.05,0,0,0.05,26.950000000000003,0)" xlink:href="#L"/><use transform="matrix(0.05,0,0,0.05,38.95,0)" xlink:href="#M"/><use transform="matrix(0.05,0,0,0.05,48.95,0)" xlink:href="#M"/><use transform="matrix(0.05,0,0,0.05,58.95,0)" xlink:href="#N"/><use transform="matrix(0.05,0,0,0.05,63.95,0)" xlink:href="#O"/><use transform="matrix(0.05,0,0,0.05,76.9,0)" xlink:href="#P"/></g><path fill="#3a414a" d="M145-31C134-9 116 4 85 4 32 4 16-35 15-94c0-59 17-99 70-100 32-1 48 14 60 33 0-11-1-24 2-32h30l-1 268h-32zM93-21c41 0 51-33 51-76s-8-73-50-73c-40 0-46 35-46 75s5 74 45 74" id="Q"/><path fill="#3a414a" d="M84 4C-5 8 30-112 23-190h32v120c0 31 7 50 39 49 72-2 45-101 50-169h31l1 190h-30c-1-10 1-25-2-33-11 22-28 36-60 37" id="R"/><path fill="#3a414a" d="M141-36C126-15 110 5 73 4 37 3 15-17 15-53c-1-64 63-63 125-63 3-35-9-54-41-54-24 1-41 7-42 31l-33-3c5-37 33-52 76-52 45 0 72 20 72 64v82c-1 20 7 32 28 27v20c-31 9-61-2-59-35zM48-53c0 20 12 33 32 33 41-3 63-29 60-74-43 2-92-5-92 41" id="S"/><path fill="#3a414a" d="M210-169c-67 3-38 105-44 169h-31v-121c0-29-5-50-35-48C34-165 62-65 56 0H25l-1-190h30c1 10-1 24 2 32 10-44 99-50 107 0 11-21 27-35 58-36 85-2 47 119 55 194h-31v-121c0-29-5-49-35-48" id="T"/><path fill="#3a414a" d="M100-194c63 0 86 42 84 106H49c0 40 14 67 53 68 26 1 43-12 49-29l28 8c-11 28-37 45-77 45C44 4 14-33 15-96c1-61 26-98 85-98zm52 81c6-60-76-77-97-28-3 7-6 17-6 28h103" id="U"/><g id="e"><use transform="matrix(0.05,0,0,0.05,0,0)" xlink:href="#G"/><use transform="matrix(0.05,0,0,0.05,9,0)" xlink:href="#Q"/><use transform="matrix(0.05,0,0,0.05,19,0)" xlink:href="#R"/><use transform="matrix(0.05,0,0,0.05,29,0)" xlink:href="#S"/><use transform="matrix(0.05,0,0,0.05,39,0)" xlink:href="#I"/><use transform="matrix(0.05,0,0,0.05,49,0)" xlink:href="#O"/><use transform="matrix(0.05,0,0,0.05,61.95,0)" xlink:href="#S"/><use transform="matrix(0.05,0,0,0.05,71.95,0)" xlink:href="#T"/><use transform="matrix(0.05,0,0,0.05,86.9,0)" xlink:href="#U"/></g><path fill="#3a414a" d="M137 0h-34L2-248h35l83 218 83-218h36" id="V"/><path fill="#3a414a" d="M233-177c-1 41-23 64-60 70L243 0h-38l-65-103H63V0H30v-248c88 3 205-21 203 71zM63-129c60-2 137 13 137-47 0-61-80-42-137-45v92" id="W"/><path fill="#3a414a" d="M212-179c-10-28-35-45-73-45-59 0-87 40-87 99 0 60 29 101 89 101 43 0 62-24 78-52l27 14C228-24 195 4 139 4 59 4 22-46 18-125c-6-104 99-153 187-111 19 9 31 26 39 46" id="X"/><path fill="#3a414a" d="M197 0v-115H63V0H30v-248h33v105h134v-105h34V0h-34" id="Y"/><g id="f"><use transform="matrix(0.05,0,0,0.05,0,0)" xlink:href="#V"/><use transform="matrix(0.05,0,0,0.05,10.65,0)" xlink:href="#L"/><use transform="matrix(0.05,0,0,0.05,22.65,0)" xlink:href="#W"/><use transform="matrix(0.05,0,0,0.05,35.6,0)" xlink:href="#X"/><use transform="matrix(0.05,0,0,0.05,48.550000000000004,0)" xlink:href="#Y"/><use transform="matrix(0.05,0,0,0.05,61.5,0)" xlink:href="#L"/><use transform="matrix(0.05,0,0,0.05,73.5,0)" xlink:href="#W"/></g><path fill="#3a414a" d="M106-169C34-169 62-67 57 0H25v-261h32l-1 103c12-21 28-36 61-36 89 0 53 116 60 194h-32v-121c2-32-8-49-39-48" id="Z"/><path fill="#3a414a" d="M100-194c62-1 85 37 85 99 1 63-27 99-86 99S16-35 15-95c0-66 28-99 85-99zM99-20c44 1 53-31 53-75 0-43-8-75-51-75s-53 32-53 75 10 74 51 75" id="aa"/><path fill="#3a414a" d="M206 0h-36l-40-164L89 0H53L-1-190h32L70-26l43-164h34l41 164 42-164h31" id="ab"/><path fill="#3a414a" d="M117-194c89-4 53 116 60 194h-32v-121c0-31-8-49-39-48C34-167 62-67 57 0H25l-1-190h30c1 10-1 24 2 32 11-22 29-35 61-36" id="ac"/><g id="g"><use transform="matrix(0.05,0,0,0.05,0,0)" xlink:href="#Z"/><use transform="matrix(0.05,0,0,0.05,10,0)" xlink:href="#aa"/><use transform="matrix(0.05,0,0,0.05,20,0)" xlink:href="#T"/><use transform="matrix(0.05,0,0,0.05,34.95,0)" xlink:href="#U"/><use transform="matrix(0.05,0,0,0.05,44.95,0)" xlink:href="#P"/><use transform="matrix(0.05,0,0,0.05,53.900000000000006,0)" xlink:href="#aa"/><use transform="matrix(0.05,0,0,0.05,63.900000000000006,0)" xlink:href="#ab"/><use transform="matrix(0.05,0,0,0.05,76.85000000000001,0)" xlink:href="#ac"/></g><path fill="#3a414a" d="M101-234c-31-9-42 10-38 44h38v23H63V0H32v-167H5v-23h27c-7-52 17-82 69-68v24" id="ad"/><path fill="#3a414a" d="M114-163C36-179 61-72 57 0H25l-1-190h30c1 12-1 29 2 39 6-27 23-49 58-41v29" id="ae"/><g id="h"><use transform="matrix(0.05,0,0,0.05,0,0)" xlink:href="#ad"/><use transform="matrix(0.05,0,0,0.05,5,0)" xlink:href="#aa"/><use transform="matrix(0.05,0,0,0.05,15,0)" xlink:href="#ae"/><use transform="matrix(0.05,0,0,0.05,20.95,0)" xlink:href="#T"/><use transform="matrix(0.05,0,0,0.05,35.9,0)" xlink:href="#U"/><use transform="matrix(0.05,0,0,0.05,45.9,0)" xlink:href="#I"/></g><path fill="#3a414a" d="M177-190C167-65 218 103 67 71c-23-6-38-20-44-43l32-5c15 47 100 32 89-28v-30C133-14 115 1 83 1 29 1 15-40 15-95c0-56 16-97 71-98 29-1 48 16 59 35 1-10 0-23 2-32h30zM94-22c36 0 50-32 50-73 0-42-14-75-50-75-39 0-46 34-46 75s6 73 46 73" id="af"/><g id="i"><use transform="matrix(0.05,0,0,0.05,0,0)" xlink:href="#S"/><use transform="matrix(0.05,0,0,0.05,10,0)" xlink:href="#T"/><use transform="matrix(0.05,0,0,0.05,24.950000000000003,0)" xlink:href="#H"/><use transform="matrix(0.05,0,0,0.05,28.900000000000002,0)" xlink:href="#af"/><use transform="matrix(0.05,0,0,0.05,38.900000000000006,0)" xlink:href="#aa"/><use transform="matrix(0.05,0,0,0.05,48.900000000000006,0)" xlink:href="#aa"/><use transform="matrix(0.05,0,0,0.05,58.900000000000006,0)" xlink:href="#I"/></g><path fill="#3a414a" d="M96-169c-40 0-48 33-48 73s9 75 48 75c24 0 41-14 43-38l32 2c-6 37-31 61-74 61-59 0-76-41-82-99-10-93 101-131 147-64 4 7 5 14 7 22l-32 3c-4-21-16-35-41-35" id="ag"/><path fill="#3a414a" d="M59-47c-2 24 18 29 38 22v24C64 9 27 4 27-40v-127H5v-23h24l9-43h21v43h35v23H59v120" id="ah"/><path fill="#3a414a" d="M160-131c35 5 61 23 61 61C221 17 115-2 30 0v-248c76 3 177-17 177 60 0 33-19 50-47 57zm-97-11c50-1 110 9 110-42 0-47-63-36-110-37v79zm0 115c55-2 124 14 124-45 0-56-70-42-124-44v89" id="ai"/><g id="j"><use transform="matrix(0.05,0,0,0.05,0,0)" xlink:href="#G"/><use transform="matrix(0.05,0,0,0.05,9,0)" xlink:href="#U"/><use transform="matrix(0.05,0,0,0.05,19,0)" xlink:href="#ag"/><use transform="matrix(0.05,0,0,0.05,28,0)" xlink:href="#ae"/><use transform="matrix(0.05,0,0,0.05,33.95,0)" xlink:href="#U"/><use transform="matrix(0.05,0,0,0.05,43.95,0)" xlink:href="#ah"/><use transform="matrix(0.05,0,0,0.05,48.95,0)" xlink:href="#ai"/><use transform="matrix(0.05,0,0,0.05,60.95,0)" xlink:href="#S"/><use transform="matrix(0.05,0,0,0.05,70.95,0)" xlink:href="#G"/><use transform="matrix(0.05,0,0,0.05,79.95,0)" xlink:href="#U"/></g><path fill="#3a414a" d="M108 0H70L1-190h34L89-25l56-165h34" id="aj"/><g id="k"><use transform="matrix(0.05,0,0,0.05,0,0)" xlink:href="#S"/><use transform="matrix(0.05,0,0,0.05,10,0)" xlink:href="#ag"/><use transform="matrix(0.05,0,0,0.05,19,0)" xlink:href="#ah"/><use transform="matrix(0.05,0,0,0.05,24,0)" xlink:href="#H"/><use transform="matrix(0.05,0,0,0.05,27.950000000000003,0)" xlink:href="#aj"/><use transform="matrix(0.05,0,0,0.05,36.95,0)" xlink:href="#U"/></g><path fill="#3a414a" d="M140-251c81 0 123 46 123 126C263-46 219 4 140 4 59 4 17-45 17-125s42-126 123-126zm0 227c63 0 89-41 89-101s-29-99-89-99c-61 0-89 39-89 99S79-25 140-24" id="ak"/><path fill="#3a414a" d="M30 0v-248h187v28H63v79h144v27H63v87h162V0H30" id="al"/><g id="l"><use transform="matrix(0.05,0,0,0.05,0,0)" xlink:href="#ai"/><use transform="matrix(0.05,0,0,0.05,12,0)" xlink:href="#ak"/><use transform="matrix(0.05,0,0,0.05,26,0)" xlink:href="#ak"/><use transform="matrix(0.05,0,0,0.05,40,0)" xlink:href="#M"/><use transform="matrix(0.05,0,0,0.05,50,0)" xlink:href="#al"/><use transform="matrix(0.05,0,0,0.05,62,0)" xlink:href="#L"/><use transform="matrix(0.05,0,0,0.05,74,0)" xlink:href="#O"/></g><path fill="#3a414a" d="M27 0v-27h64v-190l-56 39v-29l58-41h29v221h61V0H27" id="am"/><use transform="matrix(0.05,0,0,0.05,0,0)" xlink:href="#am" id="m"/><use transform="matrix(0.05,0,0,0.05,0,0)" xlink:href="#O" id="n"/><path fill="#3a414a" d="M115-194c53 0 69 39 70 98 0 66-23 100-70 100C84 3 66-7 56-30L54 0H23l1-261h32v101c10-23 28-34 59-34zm-8 174c40 0 45-34 45-75 0-40-5-75-45-74-42 0-51 32-51 76 0 43 10 73 51 73" id="an"/><g id="o"><use transform="matrix(0.05,0,0,0.05,0,0)" xlink:href="#K"/><use transform="matrix(0.05,0,0,0.05,14.950000000000001,0)" xlink:href="#U"/><use transform="matrix(0.05,0,0,0.05,24.950000000000003,0)" xlink:href="#T"/><use transform="matrix(0.05,0,0,0.05,39.900000000000006,0)" xlink:href="#an"/><use transform="matrix(0.05,0,0,0.05,49.900000000000006,0)" xlink:href="#U"/><use transform="matrix(0.05,0,0,0.05,59.900000000000006,0)" xlink:href="#ae"/></g><path fill="#3a414a" d="M30-248c87 1 191-15 191 75 0 78-77 80-158 76V0H30v-248zm33 125c57 0 124 11 124-50 0-59-68-47-124-48v98" id="ao"/><path fill="#3a414a" d="M194 0L95-120 63-95V0H30v-248h33v124l119-124h40L117-140 236 0h-42" id="ap"/><g id="p"><use transform="matrix(0.05,0,0,0.05,0,0)" xlink:href="#ao"/><use transform="matrix(0.05,0,0,0.05,12,0)" xlink:href="#ap"/></g><g id="q"><use transform="matrix(0.05,0,0,0.05,0,0)" xlink:href="#T"/><use transform="matrix(0.05,0,0,0.05,14.950000000000001,0)" xlink:href="#H"/><use transform="matrix(0.05,0,0,0.05,18.900000000000002,0)" xlink:href="#I"/></g><path fill="#3a414a" d="M63-220v92h138v28H63V0H30v-248h175v28H63" id="aq"/><g id="r"><use transform="matrix(0.05,0,0,0.05,0,0)" xlink:href="#aq"/><use transform="matrix(0.05,0,0,0.05,10.950000000000001,0)" xlink:href="#ap"/></g><g id="s"><use transform="matrix(0.05,0,0,0.05,0,0)" xlink:href="#ac"/><use transform="matrix(0.05,0,0,0.05,10,0)" xlink:href="#S"/><use transform="matrix(0.05,0,0,0.05,20,0)" xlink:href="#T"/><use transform="matrix(0.05,0,0,0.05,34.95,0)" xlink:href="#U"/></g><g id="t"><use transform="matrix(0.05,0,0,0.05,0,0)" xlink:href="#S"/><use transform="matrix(0.05,0,0,0.05,10,0)" xlink:href="#af"/><use transform="matrix(0.05,0,0,0.05,20,0)" xlink:href="#U"/></g><path fill="#3a414a" d="M137-103V0h-34v-103L8-248h37l75 118 75-118h37" id="ar"/><g id="u"><use transform="matrix(0.05,0,0,0.05,0,0)" xlink:href="#P"/><use transform="matrix(0.05,0,0,0.05,10.950000000000001,0)" xlink:href="#N"/><use transform="matrix(0.05,0,0,0.05,15.950000000000001,0)" xlink:href="#O"/><use transform="matrix(0.05,0,0,0.05,28.900000000000002,0)" xlink:href="#ar"/><use transform="matrix(0.05,0,0,0.05,40.900000000000006,0)" xlink:href="#N"/><use transform="matrix(0.05,0,0,0.05,45.900000000000006,0)" xlink:href="#O"/><use transform="matrix(0.05,0,0,0.05,58.85,0)" xlink:href="#P"/></g><path fill="#3a414a" d="M179-190L93 31C79 59 56 82 12 73V49c39 6 53-20 64-50L1-190h34L92-34l54-156h33" id="as"/><g id="v"><use transform="matrix(0.05,0,0,0.05,0,0)" xlink:href="#G"/><use transform="matrix(0.05,0,0,0.05,9,0)" xlink:href="#U"/><use transform="matrix(0.05,0,0,0.05,19,0)" xlink:href="#ag"/><use transform="matrix(0.05,0,0,0.05,28,0)" xlink:href="#ae"/><use transform="matrix(0.05,0,0,0.05,33.95,0)" xlink:href="#U"/><use transform="matrix(0.05,0,0,0.05,43.95,0)" xlink:href="#ah"/><use transform="matrix(0.05,0,0,0.05,48.95,0)" xlink:href="#N"/><use transform="matrix(0.05,0,0,0.05,53.95,0)" xlink:href="#I"/><use transform="matrix(0.05,0,0,0.05,63.95,0)" xlink:href="#U"/><use transform="matrix(0.05,0,0,0.05,73.95,0)" xlink:href="#ac"/><use transform="matrix(0.05,0,0,0.05,83.95,0)" xlink:href="#ah"/><use transform="matrix(0.05,0,0,0.05,88.95,0)" xlink:href="#H"/><use transform="matrix(0.05,0,0,0.05,92.9,0)" xlink:href="#ah"/><use transform="matrix(0.05,0,0,0.05,97.9,0)" xlink:href="#as"/></g><g id="w"><use transform="matrix(0.05,0,0,0.05,0,0)" xlink:href="#ao"/><use transform="matrix(0.05,0,0,0.05,12,0)" xlink:href="#aa"/><use transform="matrix(0.05,0,0,0.05,22,0)" xlink:href="#ab"/><use transform="matrix(0.05,0,0,0.05,34.95,0)" xlink:href="#U"/><use transform="matrix(0.05,0,0,0.05,44.95,0)" xlink:href="#ae"/></g><path fill="#3a414a" d="M115-194c55 1 70 41 70 98S169 2 115 4C84 4 66-9 55-30l1 105H24l-1-265h31l2 30c10-21 28-34 59-34zm-8 174c40 0 45-34 45-75s-6-73-45-74c-42 0-51 32-51 76 0 43 10 73 51 73" id="at"/><g id="x"><use transform="matrix(0.05,0,0,0.05,0,0)" xlink:href="#at"/><use transform="matrix(0.05,0,0,0.05,10,0)" xlink:href="#H"/><use transform="matrix(0.05,0,0,0.05,13.949999999999998,0)" xlink:href="#I"/></g><g id="y"><use transform="matrix(0.05,0,0,0.05,0,0)" xlink:href="#at"/><use transform="matrix(0.05,0,0,0.05,10,0)" xlink:href="#aa"/><use transform="matrix(0.05,0,0,0.05,20,0)" xlink:href="#ab"/><use transform="matrix(0.05,0,0,0.05,32.95,0)" xlink:href="#U"/><use transform="matrix(0.05,0,0,0.05,42.95,0)" xlink:href="#ae"/><use transform="matrix(0.05,0,0,0.05,48.900000000000006,0)" xlink:href="#O"/><use transform="matrix(0.05,0,0,0.05,61.85,0)" xlink:href="#S"/><use transform="matrix(0.05,0,0,0.05,71.85000000000001,0)" xlink:href="#T"/><use transform="matrix(0.05,0,0,0.05,86.80000000000001,0)" xlink:href="#U"/></g></defs></g></svg>